<?xml version="1.0" encoding="UTF-8" standalone="no"?>
<!-- Created with Inkscape (http://www.inkscape.org/) -->

<svg
   xmlns:dc="http://purl.org/dc/elements/1.1/"
   xmlns:cc="http://creativecommons.org/ns#"
   xmlns:rdf="http://www.w3.org/1999/02/22-rdf-syntax-ns#"
   xmlns:svg="http://www.w3.org/2000/svg"
   xmlns="http://www.w3.org/2000/svg"
   xmlns:sodipodi="http://sodipodi.sourceforge.net/DTD/sodipodi-0.dtd"
   xmlns:inkscape="http://www.inkscape.org/namespaces/inkscape"
   width="556.13904"
   height="485.13596"
   viewBox="0 0 147.14512 128.35889"
   version="1.1"
   id="svg1655"
   inkscape:version="0.92.3 (2405546, 2018-03-11)"
   sodipodi:docname="projection.svg">
  <defs
     id="defs1649">
    <marker
       inkscape:stockid="TriangleOutM"
       orient="auto"
       refY="0"
       refX="0"
       id="TriangleOutM"
       style="overflow:visible"
       inkscape:isstock="true">
      <path
         id="path2764"
         d="M 5.77,0 -2.88,5 V -5 Z"
         style="fill:#008000;fill-opacity:1;fill-rule:evenodd;stroke:#008000;stroke-width:1.00000003pt;stroke-opacity:1"
         transform="scale(0.4)"
         inkscape:connector-curvature="0" />
    </marker>
    <marker
       inkscape:stockid="TriangleOutL"
       orient="auto"
       refY="0"
       refX="0"
       id="TriangleOutL"
       style="overflow:visible"
       inkscape:isstock="true">
      <path
         id="path2761"
         d="M 5.77,0 -2.88,5 V -5 Z"
         style="fill:#808080;fill-opacity:1;fill-rule:evenodd;stroke:#808080;stroke-width:1.00000003pt;stroke-opacity:1"
         transform="scale(0.8)"
         inkscape:connector-curvature="0" />
    </marker>
    <marker
       inkscape:stockid="Arrow2Lstart"
       orient="auto"
       refY="0"
       refX="0"
       id="Arrow2Lstart-84"
       style="overflow:visible"
       inkscape:isstock="true">
      <path
         id="path4423-15"
         style="fill:#000000;fill-opacity:1;fill-rule:evenodd;stroke:#000000;stroke-width:0.625;stroke-linejoin:round;stroke-opacity:1"
         d="M 8.7185878,4.0337352 -2.2072895,0.01601326 8.7185884,-4.0017078 c -1.7454984,2.3720609 -1.7354408,5.6174519 -6e-7,8.035443 z"
         transform="matrix(1.1,0,0,1.1,1.1,0)"
         inkscape:connector-curvature="0" />
    </marker>
    <marker
       inkscape:stockid="Arrow2Lend"
       orient="auto"
       refY="0"
       refX="0"
       id="marker12959-8"
       style="overflow:visible"
       inkscape:isstock="true">
      <path
         id="path12961-6"
         style="fill:#000000;fill-opacity:1;fill-rule:evenodd;stroke:#000000;stroke-width:0.625;stroke-linejoin:round;stroke-opacity:1"
         d="M 8.7185878,4.0337352 -2.2072895,0.01601326 8.7185884,-4.0017078 c -1.7454984,2.3720609 -1.7354408,5.6174519 -6e-7,8.035443 z"
         transform="matrix(-1.1,0,0,-1.1,-1.1,0)"
         inkscape:connector-curvature="0" />
    </marker>
    <marker
       style="overflow:visible"
       id="marker3146"
       refX="0"
       refY="0"
       orient="auto"
       inkscape:stockid="Arrow2Lend">
      <path
         transform="matrix(-1.1,0,0,-1.1,-1.1,0)"
         d="M 8.7185878,4.0337352 -2.2072895,0.01601326 8.7185884,-4.0017078 c -1.7454984,2.3720609 -1.7354408,5.6174519 -6e-7,8.035443 z"
         style="fill-rule:evenodd;stroke-width:0.625;stroke-linejoin:round"
         id="path3148"
         inkscape:connector-curvature="0" />
    </marker>
    <marker
       style="overflow:visible"
       id="marker2391"
       refX="0"
       refY="0"
       orient="auto"
       inkscape:stockid="Arrow2Lend">
      <path
         transform="matrix(-1.1,0,0,-1.1,-1.1,0)"
         d="M 8.7185878,4.0337352 -2.2072895,0.01601326 8.7185884,-4.0017078 c -1.7454984,2.3720609 -1.7354408,5.6174519 -6e-7,8.035443 z"
         style="fill-rule:evenodd;stroke-width:0.625;stroke-linejoin:round"
         id="path2389"
         inkscape:connector-curvature="0" />
    </marker>
    <marker
       inkscape:stockid="TriangleOutM"
       orient="auto"
       refY="0"
       refX="0"
       id="TriangleOutM-6"
       style="overflow:visible"
       inkscape:isstock="true">
      <path
         inkscape:connector-curvature="0"
         id="path2764-2"
         d="M 5.77,0 -2.88,5 V -5 Z"
         style="fill:#008000;fill-opacity:1;fill-rule:evenodd;stroke:#008000;stroke-width:1.00000003pt;stroke-opacity:1"
         transform="scale(0.4)" />
    </marker>
    <marker
       inkscape:stockid="TriangleOutM"
       orient="auto"
       refY="0"
       refX="0"
       id="TriangleOutM-6-1"
       style="overflow:visible"
       inkscape:isstock="true">
      <path
         inkscape:connector-curvature="0"
         id="path2764-2-2"
         d="M 5.77,0 -2.88,5 V -5 Z"
         style="fill:#008000;fill-opacity:1;fill-rule:evenodd;stroke:#008000;stroke-width:1.00000003pt;stroke-opacity:1"
         transform="scale(0.4)" />
    </marker>
    <marker
       inkscape:stockid="TriangleOutM"
       orient="auto"
       refY="0"
       refX="0"
       id="TriangleOutM-6-0"
       style="overflow:visible"
       inkscape:isstock="true">
      <path
         inkscape:connector-curvature="0"
         id="path2764-2-9"
         d="M 5.77,0 -2.88,5 V -5 Z"
         style="fill:#008000;fill-opacity:1;fill-rule:evenodd;stroke:#008000;stroke-width:1.00000003pt;stroke-opacity:1"
         transform="scale(0.4)" />
    </marker>
    <marker
       inkscape:stockid="TriangleOutM"
       orient="auto"
       refY="0"
       refX="0"
       id="TriangleOutM-3"
       style="overflow:visible"
       inkscape:isstock="true">
      <path
         inkscape:connector-curvature="0"
         id="path2764-6"
         d="M 5.77,0 -2.88,5 V -5 Z"
         style="fill:#008000;fill-opacity:1;fill-rule:evenodd;stroke:#008000;stroke-width:1.00000003pt;stroke-opacity:1"
         transform="scale(0.4)" />
    </marker>
  </defs>
  <sodipodi:namedview
     id="base"
     pagecolor="#ffffff"
     bordercolor="#666666"
     borderopacity="1.0"
     inkscape:pageopacity="0.0"
     inkscape:pageshadow="2"
     inkscape:zoom="1.4"
     inkscape:cx="419.17364"
     inkscape:cy="263.10765"
     inkscape:document-units="mm"
     inkscape:current-layer="g7597"
     showgrid="false"
     units="px"
     inkscape:snap-global="false"
     inkscape:window-width="1920"
     inkscape:window-height="1019"
     inkscape:window-x="0"
     inkscape:window-y="0"
     inkscape:window-maximized="1"
     fit-margin-top="0"
     fit-margin-left="0"
     fit-margin-right="0"
     fit-margin-bottom="0" />
  <metadata
     id="metadata1652">
    <rdf:RDF>
      <cc:Work
         rdf:about="">
        <dc:format>image/svg+xml</dc:format>
        <dc:type
           rdf:resource="http://purl.org/dc/dcmitype/StillImage" />
        <dc:title />
      </cc:Work>
    </rdf:RDF>
  </metadata>
  <g
     inkscape:label="Layer 1"
     inkscape:groupmode="layer"
     id="layer1"
     transform="translate(-76.549544,-63.154745)">
    <g
       id="g7597"
       transform="matrix(0.35710008,0,0,0.35710008,14.252873,-122.59558)">
      <path
         style="fill:#0000ff;stroke:#0000ff;stroke-width:0.74092209;stroke-linecap:butt;stroke-linejoin:miter;stroke-miterlimit:4;stroke-dasharray:5.92737662, 5.92737662;stroke-dashoffset:0;stroke-opacity:1"
         d="M 342.82289,674.11195 219.79735,704.23684"
         id="path2617"
         inkscape:connector-curvature="0" />
      <path
         style="fill:#0000ff;stroke:#0000ff;stroke-width:0.74092209;stroke-linecap:butt;stroke-linejoin:miter;stroke-miterlimit:4;stroke-dasharray:5.92737665, 5.92737665;stroke-dashoffset:0;stroke-opacity:1"
         d="M 323.97145,689.73572 222.37013,704.61106"
         id="path2617-5"
         inkscape:connector-curvature="0"
         sodipodi:nodetypes="cc" />
      <text
         id="text4248"
         y="700.64697"
         x="174.11806"
         style="font-style:normal;font-weight:normal;font-size:9.96965694px;line-height:0%;font-family:sans-serif;letter-spacing:0px;word-spacing:0px;fill:#000000;fill-opacity:1;stroke:none;stroke-width:0.83080477"
         xml:space="preserve"><tspan
           y="700.64697"
           x="174.11806"
           id="tspan4250"
           sodipodi:role="line"
           style="font-size:14.53282166px;line-height:1.25;font-family:sans-serif;stroke-width:0.83080477">focal</tspan><tspan
           y="718.81299"
           x="174.11806"
           sodipodi:role="line"
           style="font-size:14.53282166px;line-height:1.25;font-family:sans-serif;stroke-width:0.83080477"
           id="tspan2974">point</tspan></text>
      <text
         id="text4248-6"
         y="723.71295"
         x="-18.768744"
         style="font-style:normal;font-weight:normal;line-height:0%;font-family:sans-serif;letter-spacing:0px;word-spacing:0px;fill:#000000;fill-opacity:1;stroke:none"
         xml:space="preserve"
         transform="rotate(-25.995725)"><tspan
           y="723.71295"
           x="-18.768744"
           id="tspan4250-2"
           sodipodi:role="line"
           style="font-size:17.49246407px;line-height:1.25;font-family:sans-serif;fill:#000000">screen</tspan></text>
      <text
         id="text4248-6-6"
         y="769.06909"
         x="430.93039"
         style="font-style:normal;font-weight:normal;line-height:0%;font-family:sans-serif;letter-spacing:0px;word-spacing:0px;fill:#000000;fill-opacity:1;stroke:none"
         xml:space="preserve"><tspan
           y="769.06909"
           x="430.93039"
           id="tspan4250-2-2"
           sodipodi:role="line"
           style="font-size:17.49246407px;line-height:1.25;font-family:sans-serif">3D triangle</tspan></text>
      <path
         sodipodi:nodetypes="ccc"
         inkscape:connector-curvature="0"
         id="path5322"
         d="M 555.46879,545.55775 219.2031,704.86971 555.5839,878.61594"
         style="fill:none;stroke:#000000;stroke-width:2.24026823;stroke-linecap:butt;stroke-linejoin:miter;stroke-miterlimit:4;stroke-dasharray:none;stroke-opacity:1" />
      <path
         sodipodi:nodetypes="cc"
         inkscape:connector-curvature="0"
         id="path5342"
         d="M 219.75001,704.44301 581.68366,522.24196"
         style="fill:none;stroke:#000000;stroke-width:2.24026823;stroke-linecap:butt;stroke-linejoin:miter;stroke-miterlimit:4;stroke-dasharray:none;stroke-opacity:1" />
      <path
         style="fill:#0000ff;stroke:#0000ff;stroke-width:0.74092209;stroke-linecap:butt;stroke-linejoin:miter;stroke-miterlimit:4;stroke-dasharray:5.92737668, 5.92737668;stroke-dashoffset:0;stroke-opacity:1"
         d="m 335.04124,711.30818 -113.509,-7.02155"
         id="path2617-5-3"
         inkscape:connector-curvature="0"
         sodipodi:nodetypes="cc" />
      <path
         sodipodi:nodetypes="cc"
         inkscape:connector-curvature="0"
         id="path5344"
         d="m 218.24222,706.15259 366.11783,51.16859"
         style="fill:none;stroke:#808080;stroke-width:0.70008385;stroke-linecap:butt;stroke-linejoin:miter;stroke-miterlimit:4;stroke-dasharray:none;stroke-dashoffset:0;stroke-opacity:1" />
      <path
         sodipodi:nodetypes="ccccc"
         inkscape:connector-curvature="0"
         id="path4244"
         d="m 312.35889,660.71302 -0.42402,92.06323 41.9988,-27.60776 -0.21351,-88.49294 z"
         style="opacity:0.68999999;fill:#ececec;stroke:#000000;stroke-width:1.25621486;stroke-linecap:butt;stroke-linejoin:miter;stroke-miterlimit:4;stroke-dasharray:none;stroke-opacity:1" />
      <text
         id="text5291"
         y="727.37457"
         x="321.76971"
         style="font-style:normal;font-weight:normal;font-size:7.75001335px;line-height:0%;font-family:sans-serif;letter-spacing:0px;word-spacing:0px;fill:#000000;fill-opacity:1;stroke:none;stroke-width:0.64583445"
         xml:space="preserve"><tspan
           y="727.37457"
           x="321.76971"
           id="tspan5293"
           sodipodi:role="line"
           style="font-size:14.15502071px;line-height:1.25;font-family:sans-serif;stroke-width:0.64583445">p'</tspan></text>
      <text
         id="text5295"
         y="742.2699"
         x="482.46652"
         style="font-style:normal;font-weight:normal;line-height:0%;font-family:sans-serif;letter-spacing:0px;word-spacing:0px;fill:#000000;fill-opacity:1;stroke:none"
         xml:space="preserve"><tspan
           y="742.2699"
           x="482.46652"
           id="tspan5297"
           sodipodi:role="line"
           style="font-size:21.91741562px;line-height:1.25;font-family:sans-serif">p</tspan></text>
      <path
         inkscape:connector-curvature="0"
         id="path5346"
         d="M 555.38507,879.00973 V 545.4383 l 26.42857,-22.85714 3.57143,234.28571 z"
         style="fill:none;stroke:#000000;stroke-width:2.24026823;stroke-linecap:butt;stroke-linejoin:miter;stroke-miterlimit:4;stroke-dasharray:none;stroke-opacity:1" />
      <path
         sodipodi:nodetypes="cccc"
         inkscape:connector-curvature="0"
         id="path4273"
         d="m 498.45668,719.71269 -40.607,-51.39322 72.93927,-40.39475 z"
         style="fill:#e6e6e6;stroke:#000000;stroke-width:1.96023479;stroke-linecap:butt;stroke-linejoin:miter;stroke-opacity:1;stroke-miterlimit:4;stroke-dasharray:none" />
      <g
         style="fill:#800000"
         transform="matrix(0.44868168,0,0,0.44868168,-158.78772,614.0504)"
         id="g6286">
        <g
           style="font-style:normal;font-variant:normal;font-weight:normal;font-stretch:normal;letter-spacing:normal;word-spacing:normal;text-anchor:start;fill:#800000;stroke:#000000;stroke-linecap:butt;stroke-linejoin:miter;stroke-miterlimit:10.43299961;stroke-dasharray:none;stroke-dashoffset:0;stroke-opacity:1"
           id="g6288"
           transform="matrix(0.85714286,0,0,-0.85714286,-150,600)"
           xml:space="preserve"
           stroke-miterlimit="10.433"
           font-style="normal"
           font-variant="normal"
           font-weight="normal"
           font-stretch="normal"
           font-size-adjust="none"
           letter-spacing="normal"
           word-spacing="normal"><path
             style="fill:#800000;stroke-width:0"
             inkscape:connector-curvature="0"
             d="m 1216.3,367.91 v 5.78 c 0,4.39 2.4,6.78 4.6,6.78 0.1,0 0.9,0 1.6,-0.36 -0.6,-0.18 -1.5,-0.84 -1.5,-2.07 0,-1.16 0.8,-2.16 2.2,-2.16 1.4,0 2.1,1 2.1,2.2 0,1.85 -1.8,3.49 -4.4,3.49 -3.5,0 -7.8,-2.64 -7.8,-7.93 v -5.73 h -3.9 v -1.55 h 3.9 v -16.14 c 0,-2.23 -0.5,-2.23 -3.9,-2.23 v -1.55 c 2,0.05 4.3,0.16 5.7,0.16 2,0 4.4,0 6.4,-0.16 v 1.55 h -1.1 c -3.7,0 -3.8,0.55 -3.8,2.34 v 16.03 h 5.7 v 1.55 z"
             id="path6290" /><path
             style="fill:#800000;stroke-width:0"
             inkscape:connector-curvature="0"
             d="m 1246.3,357.1 v 0.59 l -0.1,0.59 -0.1,0.58 -0.1,0.57 -0.1,0.56 -0.1,0.55 -0.2,0.54 -0.2,0.53 -0.2,0.51 -0.3,0.51 -0.2,0.48 -0.3,0.48 -0.3,0.46 -0.4,0.44 -0.3,0.42 -0.4,0.41 -0.4,0.38 -0.4,0.37 -0.4,0.35 -0.4,0.33 -0.5,0.3 -0.4,0.28 -0.5,0.26 -0.5,0.24 -0.5,0.21 -0.5,0.18 -0.5,0.16 -0.5,0.13 -0.6,0.11 -0.5,0.07 -0.6,0.05 -0.6,0.01 v -1.09 c 2.2,0 4.3,-1.09 5.6,-3.23 1.3,-2.14 1.3,-5.04 1.3,-6.93 0,-1.79 0,-4.48 -1.1,-6.67 -1.1,-2.25 -3.2,-3.69 -5.8,-3.69 v 0 c -2.1,0 -4.3,1.05 -5.6,3.33 -1.3,2.21 -1.3,5.24 -1.3,7.03 0,1.94 0,4.63 1.2,6.83 1.4,2.28 3.7,3.33 5.7,3.33 v 1.09 c -6.2,0 -11,-5.42 -11,-11.65 0,-6.42 5.2,-11.21 11,-11.21 6,0 11.1,4.88 11.1,11.21 z"
             id="path6292" /><path
             style="fill:#800000;stroke-width:0"
             inkscape:connector-curvature="0"
             d="m 1267,363.04 0.1,0.1 v 0.12 l 0.1,0.12 v 0.12 l 0.1,0.13 v 0.13 l 0.1,0.13 0.1,0.14 0.1,0.14 v 0.13 l 0.1,0.14 0.1,0.14 0.1,0.13 0.1,0.14 0.1,0.13 0.2,0.13 0.1,0.13 0.1,0.12 0.2,0.12 0.1,0.11 0.2,0.11 0.2,0.1 0.2,0.1 0.2,0.08 0.2,0.08 0.2,0.08 0.3,0.06 0.2,0.05 0.3,0.05 0.1,0.02 0.1,0.01 0.2,0.01 0.1,0.01 0.2,0.01 h 0.1 v 1.55 c -1.1,-0.09 -2.6,-0.14 -3.7,-0.14 -1.2,0 -3.5,0.09 -4.3,0.14 v -1.55 c 1.8,-0.04 2.3,-1.18 2.3,-2.14 0,-0.43 -0.1,-0.64 -0.3,-1.18 l -5,-12.71 -5.6,13.89 c -0.3,0.66 -0.3,0.75 -0.3,0.86 0,1.28 1.9,1.28 2.8,1.28 v 1.55 c -1.5,-0.05 -4.3,-0.14 -5.4,-0.14 -1.3,0 -3.3,0.05 -4.8,0.14 v -1.55 c 3.1,0 3.3,-0.29 3.9,-1.84 l 7.2,-17.67 c 0.3,-0.71 0.4,-0.96 1.1,-0.96 0.6,0 0.8,0.46 1,0.96 z"
             id="path6294" /></g>      </g>
      <path
         sodipodi:nodetypes="cc"
         inkscape:connector-curvature="0"
         id="path6409"
         d="m 268.1955,681.6362 c 14.5134,14.46252 11.22527,37.2199 -0.3565,49.17889"
         style="fill:none;stroke:#800000;stroke-width:2;stroke-linecap:butt;stroke-linejoin:miter;stroke-miterlimit:4;stroke-dasharray:none;stroke-opacity:1" />
      <path
         sodipodi:nodetypes="cccc"
         inkscape:connector-curvature="0"
         id="path4421"
         d="m 335.16234,713.81699 c -0.31724,-1.26898 -11.05969,-23.93775 -11.05969,-23.93775 l 18.79044,-15.93102 z"
         style="fill:#e6e6e6;stroke:#000000;stroke-width:1.96023479;stroke-linecap:butt;stroke-linejoin:miter;stroke-opacity:1;stroke-miterlimit:4;stroke-dasharray:none" />
      <circle
         r="2.6516156"
         cy="689.6441"
         cx="323.83911"
         id="path4246-3-1"
         style="fill:#ff0000;stroke:#000000;stroke-width:0.74245238;stroke-linecap:butt;stroke-miterlimit:4;stroke-dasharray:none;stroke-dashoffset:0;stroke-opacity:1" />
      <path
         style="fill:none;stroke:#0000ff;stroke-width:1.12013416;stroke-linecap:butt;stroke-linejoin:miter;stroke-opacity:1;stroke-miterlimit:4;stroke-dasharray:none"
         d="M 324.23476,689.63141 458.09266,669.329"
         id="path2585"
         inkscape:connector-curvature="0"
         sodipodi:nodetypes="cc" />
      <circle
         r="2.6516156"
         cy="673.66406"
         cx="343.0033"
         id="path4246-3-8-9-9"
         style="fill:#ff0000;stroke:#000000;stroke-width:0.74245238;stroke-linecap:butt;stroke-miterlimit:4;stroke-dasharray:none;stroke-dashoffset:0;stroke-opacity:1" />
      <path
         style="fill:none;stroke:#0000ff;stroke-width:1.12013416;stroke-linecap:butt;stroke-linejoin:miter;stroke-opacity:1;stroke-miterlimit:4;stroke-dasharray:none"
         d="M 343.12908,673.85262 531.27477,627.86194"
         id="path2585-6"
         inkscape:connector-curvature="0"
         sodipodi:nodetypes="cc" />
      <circle
         r="3.5714285"
         cy="155.71428"
         cx="120"
         transform="matrix(1.2562148,0,0,1.2562148,307.26183,472.72677)"
         id="path4246-3"
         style="fill:#ff0000;stroke:#000000;stroke-width:1;stroke-linecap:butt;stroke-miterlimit:4;stroke-dasharray:none;stroke-dashoffset:0;stroke-opacity:1" />
      <circle
         r="3.5714285"
         cy="155.71428"
         cx="120"
         transform="matrix(1.2562148,0,0,1.2562148,379.94284,431.89979)"
         id="path4246-3-8-9"
         style="fill:#ff0000;stroke:#000000;stroke-width:1;stroke-linecap:butt;stroke-miterlimit:4;stroke-dasharray:none;stroke-dashoffset:0;stroke-opacity:1" />
      <circle
         r="3.5714285"
         cy="155.71428"
         cx="120"
         transform="matrix(1.2562148,0,0,1.2562148,68.084133,509.22307)"
         id="path4246"
         style="fill:#000000;stroke:#000000;stroke-width:1;stroke-linecap:butt;stroke-miterlimit:4;stroke-dasharray:none;stroke-dashoffset:0;stroke-opacity:1" />
      <circle
         r="2.6516156"
         cy="711.96088"
         cx="334.83237"
         id="path4246-3-8-7"
         style="fill:#ff0000;stroke:#000000;stroke-width:0.74245238;stroke-linecap:butt;stroke-miterlimit:4;stroke-dasharray:none;stroke-dashoffset:0;stroke-opacity:1" />
      <path
         style="fill:none;stroke:#0000ff;stroke-width:1.12013416;stroke-linecap:butt;stroke-linejoin:miter;stroke-opacity:1;stroke-miterlimit:4;stroke-dasharray:none"
         d="m 335.44358,711.53509 165.38441,8.6"
         id="path2585-6-7"
         inkscape:connector-curvature="0"
         sodipodi:nodetypes="cc" />
      <circle
         r="3.5714285"
         cy="155.71428"
         cx="120"
         transform="matrix(1.2562148,0,0,1.2562148,348.53747,524.76997)"
         id="path4246-3-8"
         style="fill:#ff0000;stroke:#000000;stroke-width:1;stroke-linecap:butt;stroke-miterlimit:4;stroke-dasharray:none;stroke-dashoffset:0;stroke-opacity:1" />
      <path
         sodipodi:nodetypes="ccccc"
         inkscape:connector-curvature="0"
         id="path4244-5"
         d="m 312.35665,660.6801 -0.1594,90.87246 41.73418,-26.41699 -0.2369,-88.04855 z"
         style="opacity:1;fill:none;stroke:#000000;stroke-width:2.24026823;stroke-linecap:butt;stroke-linejoin:miter;stroke-miterlimit:4;stroke-dasharray:none;stroke-opacity:1" />
      <path
         style="fill:none;stroke:#008000;stroke-width:1.68020125;stroke-linecap:butt;stroke-linejoin:miter;stroke-opacity:1;marker-end:url(#TriangleOutM);stroke-miterlimit:4;stroke-dasharray:none"
         d="M 479.51593,793.87691 469.19594,777.47078"
         id="path2999"
         inkscape:connector-curvature="0" />
      <path
         style="fill:none;stroke:#008000;stroke-width:1.68020125;stroke-linecap:butt;stroke-linejoin:miter;stroke-opacity:1;marker-end:url(#TriangleOutM-6);stroke-miterlimit:4;stroke-dasharray:none"
         d="m 479.01204,793.79927 16.40613,-10.31999"
         id="path2999-9"
         inkscape:connector-curvature="0" />
      <path
         style="fill:none;stroke:#008000;stroke-width:1.68020125;stroke-linecap:butt;stroke-linejoin:miter;stroke-opacity:1;marker-end:url(#TriangleOutM-6-1);stroke-miterlimit:4;stroke-dasharray:none"
         d="m 479.47982,793.79927 -1.93076,12.50756"
         id="path2999-9-7"
         inkscape:connector-curvature="0"
         sodipodi:nodetypes="cc" />
      <path
         style="fill:none;stroke:#008000;stroke-width:1.68020129;stroke-linecap:butt;stroke-linejoin:miter;stroke-miterlimit:4;stroke-dasharray:none;stroke-opacity:1;marker-end:url(#TriangleOutM-3)"
         d="m 317.45093,743.15531 0.0252,-16.55816"
         id="path2999-0"
         inkscape:connector-curvature="0"
         sodipodi:nodetypes="cc" />
      <path
         style="fill:none;stroke:#008000;stroke-width:1.68020129;stroke-linecap:butt;stroke-linejoin:miter;stroke-miterlimit:4;stroke-dasharray:none;stroke-opacity:1;marker-end:url(#TriangleOutM-6-0)"
         d="m 317.4382,742.83208 14.77831,-9.72655"
         id="path2999-9-6"
         inkscape:connector-curvature="0"
         sodipodi:nodetypes="cc" />
    </g>
  </g>
</svg>
