<?xml version="1.0" encoding="UTF-8"?> <!-- Generator: Adobe Illustrator 25.2.1, SVG Export Plug-In . SVG Version: 6.00 Build 0) --> <svg xmlns="http://www.w3.org/2000/svg" xmlns:xlink="http://www.w3.org/1999/xlink" version="1.1" id="Layer_1" x="0px" y="0px" viewBox="0 0 155.91 70.87" style="enable-background:new 0 0 155.91 70.87;" xml:space="preserve"> <style type="text/css"> .st0{fill:#801E49;} </style> <path class="st0" d="M8.38,7.66V35.8v0.21v0.21h0.01c0.06,7.72,3.22,14.73,8.32,19.82c5.14,5.14,12.24,8.32,20.05,8.32h0 c7.81,0,14.89-3.19,20.01-8.32c5.08-5.09,8.22-12.1,8.29-19.82h0.01v-0.21v0V35.8V7.66H8.38z M11.3,36.01L11.3,36.01 c0-7,2.86-13.35,7.48-17.96c4.55-4.55,10.82-7.38,17.71-7.45c-0.01,2.33-0.08,4.71-0.21,6.91c-0.12,2.27-0.3,4.49-0.48,6.63 c-0.31,3.69-0.76,7.13-1.34,10.29c-0.58,3.15-1.29,6.04-2.13,8.64c-1.33,4.08-2.75,7.37-4.45,9.69c-1.64,2.24-3.55,3.58-5.91,3.89 c-1.13-0.82-2.21-1.69-3.19-2.68C14.16,49.35,11.3,43,11.3,36.01z M36.76,61.43L36.76,61.43c-5.15,0-9.95-1.55-13.96-4.2h27.91 C46.7,59.88,41.91,61.43,36.76,61.43z M54.74,53.96c-0.98,0.98-2.06,1.86-3.19,2.68c-2.34-0.31-4.24-1.65-5.88-3.88 c-1.7-2.32-3.12-5.61-4.44-9.69c-0.84-2.59-1.55-5.47-2.13-8.6c-0.58-3.14-1.03-6.56-1.34-10.23c-0.16-1.86-0.32-3.78-0.45-5.73 c-0.12-1.97-0.21-4-0.24-6.07l0,0l-0.01-1.84c6.88,0.08,13.13,2.91,17.68,7.45c4.61,4.61,7.48,10.96,7.48,17.96v0 C62.22,43,59.35,49.35,54.74,53.96z"></path> <rect x="138.64" y="55.87" class="st0" width="8.5" height="8.5"></rect> <g> <path d="M130.25,63.3v-0.93l2.39-3.08c0.33-0.4,0.6-0.71,0.93-1.08v-0.03h-3.09v-1.29h5.07v-1.02h-15.28v7.43h-1.61v-7.43h-10.19 v1.02H110v1.21h-1.53v2.83c0,0.79,0.21,1.18,0.82,1.18c0.29,0,0.45-0.01,0.63-0.07l0.02,1.23c-0.23,0.09-0.67,0.17-1.16,0.17 c-0.6,0-1.09-0.2-1.39-0.53c-0.35-0.37-0.51-0.96-0.51-1.8V58.1h-0.9v-1.21h0.9v-1.02H73.6v8.5h61.95V63.3H130.25z M81.07,63.3 h-1.49l-0.76-2.61c-0.2-0.67-0.34-1.28-0.48-2.05H78.3c-0.14,0.79-0.3,1.42-0.48,2.05l-0.81,2.61h-1.51l-1.88-6.41h1.65l0.65,2.91 c0.16,0.68,0.3,1.38,0.42,2.08h0.03c0.13-0.7,0.34-1.41,0.51-2.07l0.84-2.92h1.31l0.8,2.84c0.2,0.75,0.37,1.45,0.51,2.14h0.02 c0.09-0.7,0.25-1.39,0.42-2.14l0.71-2.84h1.58L81.07,63.3z M91.07,63.3h-1.49l-0.76-2.61c-0.2-0.67-0.34-1.28-0.48-2.05h-0.03 c-0.14,0.79-0.3,1.42-0.48,2.05l-0.81,2.61h-1.5l-1.88-6.41h1.65l0.65,2.91c0.16,0.68,0.3,1.38,0.42,2.08h0.02 c0.13-0.7,0.34-1.41,0.51-2.07l0.84-2.92h1.31l0.8,2.84c0.19,0.75,0.36,1.45,0.51,2.14h0.02c0.09-0.7,0.25-1.39,0.42-2.14 l0.71-2.84h1.58L91.07,63.3z M101.08,63.3h-1.49l-0.76-2.61c-0.2-0.67-0.34-1.28-0.49-2.05h-0.02c-0.15,0.79-0.3,1.42-0.48,2.05 l-0.81,2.61h-1.5l-1.88-6.41h1.65l0.65,2.91c0.16,0.68,0.3,1.38,0.42,2.08h0.02c0.13-0.7,0.34-1.41,0.51-2.07l0.84-2.92h1.31 l0.8,2.84c0.19,0.75,0.36,1.45,0.51,2.14h0.03c0.09-0.7,0.25-1.39,0.42-2.14l0.71-2.84h1.58L101.08,63.3z M104.32,63.44 c-0.57,0-0.98-0.45-0.98-1.04c0-0.6,0.42-1.04,0.99-1.04c0.59,0,0.99,0.42,0.99,1.04C105.33,63,104.94,63.44,104.32,63.44z M115.57,63.3l-0.08-0.96h-0.04c-0.27,0.45-0.9,1.11-2.05,1.11c-1.15,0-2.21-0.7-2.21-2.79v-3.76h1.61v3.49 c0,1.06,0.34,1.75,1.19,1.75c0.65,0,1.07-0.45,1.23-0.87c0.07-0.13,0.09-0.32,0.09-0.5v-3.87h1.61v4.49c0,0.76,0.03,1.39,0.05,1.92 H115.57z M122.68,63.44c-0.57,0-0.98-0.45-0.98-1.04c0-0.6,0.42-1.04,1-1.04c0.59,0,0.99,0.42,0.99,1.04 C123.68,63,123.29,63.44,122.68,63.44z M128.17,62.15c0.55,0,0.96-0.12,1.27-0.25l0.22,1.2c-0.34,0.16-1,0.33-1.8,0.33 c-1.99,0-3.28-1.29-3.28-3.28c0-1.92,1.31-3.41,3.55-3.41c0.59,0,1.19,0.13,1.56,0.29l-0.29,1.22c-0.26-0.13-0.64-0.25-1.22-0.25 c-1.23,0-1.96,0.91-1.95,2.08C126.22,61.4,127.07,62.15,128.17,62.15z"></path> <path d="M132.26,61.98v0.03h3.29v-4.12l-2.35,3.01C132.89,61.27,132.59,61.64,132.26,61.98z"></path> </g> <g> <path d="M76.87,8.87h-3.13V7.76h7.62v1.11h-3.15v9h-1.34V8.87z"></path> <path d="M87.9,13.13h-3.99v3.64h4.46v1.1h-5.81V7.76h5.58v1.09h-4.23v3.2h3.99V13.13z"></path> <path d="M97.36,17.55c-0.47,0.24-1.47,0.48-2.72,0.48c-2.9,0-5.07-1.8-5.07-5.13c0-3.18,2.19-5.31,5.38-5.31 c1.27,0,2.09,0.27,2.44,0.45l-0.34,1.07c-0.49-0.24-1.21-0.42-2.06-0.42c-2.41,0-4.02,1.51-4.02,4.17c0,2.49,1.45,4.06,3.94,4.06 c0.83,0,1.65-0.17,2.19-0.42L97.36,17.55z"></path> <path d="M100.45,7.76v4.23h4.98V7.76h1.35v10.11h-1.35v-4.74h-4.98v4.74H99.1V7.76H100.45z"></path> <path d="M109.16,17.87V7.76h1.47l3.29,5.11c0.75,1.18,1.36,2.25,1.83,3.28l0.05-0.01c-0.12-1.35-0.15-2.58-0.15-4.16V7.76h1.25 v10.11h-1.34l-3.27-5.13c-0.72-1.12-1.41-2.28-1.91-3.38l-0.05,0.02c0.08,1.28,0.09,2.49,0.09,4.17v4.32H109.16z"></path> <path d="M120.61,7.76v10.11h-1.34V7.76H120.61z"></path> <path d="M130.19,17.55c-0.47,0.24-1.47,0.48-2.72,0.48c-2.9,0-5.07-1.8-5.07-5.13c0-3.18,2.18-5.31,5.38-5.31 c1.27,0,2.09,0.27,2.44,0.45l-0.34,1.07c-0.49-0.24-1.21-0.42-2.06-0.42c-2.41,0-4.02,1.51-4.02,4.17c0,2.49,1.45,4.06,3.94,4.06 c0.83,0,1.65-0.17,2.19-0.42L130.19,17.55z"></path> <path d="M133.68,14.69l-1.07,3.18h-1.38l3.51-10.11h1.59l3.51,10.11h-1.42l-1.1-3.18H133.68z M137.07,13.67l-1.02-2.91 c-0.23-0.66-0.38-1.26-0.53-1.84h-0.03c-0.15,0.59-0.31,1.21-0.52,1.83l-1.01,2.92H137.07z"></path> <path d="M141.43,7.76h1.35v9.01h4.4v1.1h-5.75V7.76z"></path> </g> <path d="M75.06,23.7v6c0,2.25,1,3.21,2.36,3.21c1.48,0,2.46-0.99,2.46-3.21v-6h1.32v5.91c0,3.1-1.63,4.36-3.82,4.36 c-2.07,0-3.63-1.17-3.63-4.32V23.7H75.06z"></path> <path d="M83.53,33.81V23.7h1.44l3.22,5.11c0.74,1.18,1.33,2.25,1.8,3.28l0.04-0.01c-0.12-1.35-0.15-2.58-0.15-4.16V23.7h1.23v10.11 H89.8l-3.21-5.13c-0.71-1.13-1.38-2.28-1.88-3.38l-0.04,0.02c0.07,1.28,0.09,2.49,0.09,4.17v4.32H83.53z"></path> <path d="M94.78,23.7v10.11h-1.32V23.7H94.78z"></path> <path d="M99.36,33.81L96.04,23.7h1.42l1.58,4.98c0.42,1.37,0.79,2.6,1.08,3.78h0.03c0.28-1.17,0.69-2.44,1.15-3.76l1.71-4.99h1.4 l-3.62,10.11H99.36z"></path> <path d="M110.8,29.07h-3.91v3.64h4.38v1.1h-5.7V23.7h5.47v1.09h-4.15v3.2h3.91V29.07z"></path> <path d="M113.04,23.83c0.66-0.12,1.62-0.21,2.5-0.21c1.4,0,2.31,0.27,2.92,0.83c0.5,0.45,0.79,1.14,0.79,1.93 c0,1.32-0.84,2.21-1.89,2.57v0.04c0.77,0.27,1.23,0.99,1.47,2.04c0.33,1.41,0.57,2.38,0.78,2.78h-1.35 c-0.17-0.3-0.39-1.16-0.66-2.42c-0.3-1.39-0.86-1.92-2.04-1.96h-1.23v4.38h-1.31V23.83z M114.34,28.44h1.33 c1.39,0,2.28-0.76,2.28-1.92c0-1.31-0.94-1.88-2.33-1.88c-0.63,0-1.06,0.04-1.29,0.1V28.44z"></path> <path d="M121.02,32.22c0.58,0.38,1.42,0.66,2.33,0.66c1.33,0,2.12-0.7,2.12-1.72c0-0.93-0.54-1.49-1.91-2 c-1.65-0.6-2.67-1.47-2.67-2.88c0-1.58,1.3-2.75,3.27-2.75c1.02,0,1.79,0.24,2.22,0.5l-0.36,1.07c-0.32-0.2-0.99-0.48-1.91-0.48 c-1.38,0-1.9,0.83-1.9,1.52c0,0.94,0.61,1.41,2.01,1.95c1.71,0.66,2.56,1.49,2.56,2.97c0,1.56-1.14,2.92-3.52,2.92 c-0.97,0-2.04-0.3-2.58-0.66L121.02,32.22z"></path> <path d="M129.96,23.7v10.11h-1.32V23.7H129.96z"></path> <path d="M134.23,24.81h-3.07V23.7h7.48v1.11h-3.09v9h-1.32V24.81z"></path> <path d="M142.51,33.81v-4.29l-3.21-5.82h1.5l1.42,2.79c0.38,0.77,0.69,1.38,1,2.08h0.03c0.27-0.66,0.63-1.32,1.02-2.08l1.45-2.79 h1.47l-3.38,5.8v4.3H142.51z"></path> <path d="M82.84,44.83c0,3.46-2.11,5.32-4.69,5.32c-2.68,0-4.55-2.08-4.55-5.14c0-3.21,1.98-5.31,4.68-5.31 C81.06,39.7,82.84,41.81,82.84,44.83z M74.98,44.98c0,2.17,1.17,4.11,3.24,4.11c2.07,0,3.24-1.9,3.24-4.2 c0-2.03-1.05-4.12-3.22-4.12S74.98,42.77,74.98,44.98z"></path> <path d="M84.6,39.88h5.44v1.09h-4.12v3.36h3.81v1.08h-3.81v4.57H84.6V39.88z"></path> <path d="M95.23,39.88h1.32v9.01h4.32v1.1h-5.64V39.88z"></path> <path d="M103.71,39.88v10.11h-1.32V39.88H103.71z"></path> <path d="M106.06,40.03c0.57-0.14,1.49-0.23,2.38-0.23c1.31,0,2.15,0.23,2.76,0.74c0.52,0.39,0.85,0.99,0.85,1.79 c0,0.99-0.66,1.84-1.71,2.22v0.04c0.96,0.22,2.08,1.02,2.08,2.52c0,0.87-0.34,1.54-0.87,2.03c-0.69,0.64-1.83,0.95-3.48,0.95 c-0.9,0-1.59-0.06-2.03-0.12V40.03z M107.37,44.17h1.18c1.37,0,2.17-0.73,2.17-1.71c0-1.17-0.88-1.65-2.21-1.65 c-0.6,0-0.94,0.04-1.15,0.09V44.17z M107.37,49c0.27,0.04,0.63,0.06,1.09,0.06c1.35,0,2.59-0.5,2.59-1.96 c0-1.37-1.18-1.95-2.61-1.95h-1.08V49z"></path> <path d="M119.49,45.25h-3.91v3.64h4.38v1.1h-5.7V39.88h5.47v1.09h-4.15v3.2h3.91V45.25z"></path> <path d="M121.72,40.01c0.66-0.12,1.62-0.21,2.5-0.21c1.4,0,2.31,0.27,2.92,0.83c0.5,0.45,0.79,1.14,0.79,1.93 c0,1.32-0.84,2.21-1.89,2.57v0.04c0.76,0.27,1.23,0.99,1.47,2.04c0.33,1.41,0.57,2.38,0.78,2.78h-1.35 c-0.17-0.3-0.39-1.15-0.66-2.42c-0.3-1.39-0.86-1.92-2.04-1.96h-1.23v4.38h-1.31V40.01z M123.03,44.62h1.33 c1.39,0,2.28-0.77,2.28-1.92c0-1.31-0.94-1.88-2.33-1.88c-0.63,0-1.06,0.04-1.29,0.1V44.62z"></path> <path d="M135.09,45.25h-3.91v3.64h4.38v1.1h-5.7V39.88h5.47v1.09h-4.15v3.2h3.91V45.25z"></path> <path d="M144.37,49.67c-0.46,0.24-1.44,0.48-2.67,0.48c-2.85,0-4.98-1.8-4.98-5.13c0-3.18,2.14-5.31,5.28-5.31 c1.25,0,2.06,0.27,2.4,0.45l-0.33,1.06c-0.48-0.24-1.18-0.42-2.02-0.42c-2.37,0-3.95,1.52-3.95,4.17c0,2.49,1.42,4.06,3.87,4.06 c0.81,0,1.62-0.16,2.14-0.42L144.37,49.67z"></path> </svg> 